<svg width="20" height="20" viewBox="0 0 20 20" fill="none" xmlns="http://www.w3.org/2000/svg">
<path d="M10.0003 1.66699C14.6028 1.66699 18.3337 5.39783 18.3337 10.0003C18.3337 14.6028 14.6028 18.3337 10.0003 18.3337C5.39783 18.3337 1.66699 14.6028 1.66699 10.0003C1.66699 5.39783 5.39783 1.66699 10.0003 1.66699ZM10.0003 3.33366C8.23222 3.33366 6.53652 4.03604 5.28628 5.28628C4.03604 6.53652 3.33366 8.23222 3.33366 10.0003C3.33366 11.7684 4.03604 13.4641 5.28628 14.7144C6.53652 15.9646 8.23222 16.667 10.0003 16.667C11.7684 16.667 13.4641 15.9646 14.7144 14.7144C15.9646 13.4641 16.667 11.7684 16.667 10.0003C16.667 8.23222 15.9646 6.53652 14.7144 5.28628C13.4641 4.03604 11.7684 3.33366 10.0003 3.33366ZM13.1945 6.11449C13.2901 6.0476 13.4063 6.01654 13.5226 6.02675C13.6388 6.03696 13.7478 6.08779 13.8303 6.17033C13.9126 6.25261 13.963 6.3614 13.9727 6.47737C13.9823 6.59334 13.9504 6.70895 13.8828 6.80366C12.0662 9.34199 11.0662 10.702 10.8845 10.8845C10.65 11.119 10.332 11.2507 10.0003 11.2507C9.6687 11.2507 9.35065 11.119 9.11616 10.8845C8.88166 10.65 8.74992 10.332 8.74992 10.0003C8.74992 9.6687 8.88166 9.35065 9.11616 9.11616C9.42783 8.80533 10.787 7.80449 13.1945 6.11449ZM14.5837 9.16699C14.8047 9.16699 15.0166 9.25479 15.1729 9.41107C15.3292 9.56735 15.417 9.77931 15.417 10.0003C15.417 10.2213 15.3292 10.4333 15.1729 10.5896C15.0166 10.7459 14.8047 10.8337 14.5837 10.8337C14.3626 10.8337 14.1507 10.7459 13.9944 10.5896C13.8381 10.4333 13.7503 10.2213 13.7503 10.0003C13.7503 9.77931 13.8381 9.56735 13.9944 9.41107C14.1507 9.25479 14.3626 9.16699 14.5837 9.16699ZM5.41699 9.16699C5.63801 9.16699 5.84997 9.25479 6.00625 9.41107C6.16253 9.56735 6.25033 9.77931 6.25033 10.0003C6.25033 10.2213 6.16253 10.4333 6.00625 10.5896C5.84997 10.7459 5.63801 10.8337 5.41699 10.8337C5.19598 10.8337 4.98402 10.7459 4.82774 10.5896C4.67146 10.4333 4.58366 10.2213 4.58366 10.0003C4.58366 9.77931 4.67146 9.56735 4.82774 9.41107C4.98402 9.25479 5.19598 9.16699 5.41699 9.16699ZM7.34866 6.17033C7.42825 6.2472 7.49174 6.33915 7.53541 6.44082C7.57908 6.54249 7.60207 6.65184 7.60303 6.76249C7.604 6.87314 7.58291 6.98287 7.54101 7.08529C7.49911 7.1877 7.43723 7.28074 7.35899 7.35899C7.28074 7.43723 7.1877 7.49911 7.08529 7.54101C6.98287 7.58291 6.87314 7.604 6.76249 7.60303C6.65184 7.60207 6.54249 7.57908 6.44082 7.53541C6.33915 7.49174 6.2472 7.42825 6.17033 7.34866C6.01853 7.19149 5.93453 6.98099 5.93643 6.76249C5.93833 6.54399 6.02597 6.33498 6.18048 6.18048C6.33498 6.02597 6.54399 5.93833 6.76249 5.93643C6.98099 5.93453 7.19149 6.01853 7.34866 6.17033ZM10.0003 4.58366C10.2213 4.58366 10.4333 4.67146 10.5896 4.82774C10.7459 4.98402 10.8337 5.19598 10.8337 5.41699C10.8337 5.63801 10.7459 5.84997 10.5896 6.00625C10.4333 6.16253 10.2213 6.25033 10.0003 6.25033C9.77931 6.25033 9.56735 6.16253 9.41107 6.00625C9.25479 5.84997 9.16699 5.63801 9.16699 5.41699C9.16699 5.19598 9.25479 4.98402 9.41107 4.82774C9.56735 4.67146 9.77931 4.58366 10.0003 4.58366Z" fill="#111111"/>
</svg>
