<svg width="20" height="18" viewBox="0 0 20 18" fill="none" xmlns="http://www.w3.org/2000/svg">
<path d="M16.6663 0.666992H8.33301C7.66997 0.666992 7.03408 0.930384 6.56524 1.39923C6.0964 1.86807 5.83301 2.50395 5.83301 3.16699V9.00033C5.83301 9.66337 6.0964 10.2993 6.56524 10.7681C7.03408 11.2369 7.66997 11.5003 8.33301 11.5003H16.6663C17.3294 11.5003 17.9653 11.2369 18.4341 10.7681C18.9029 10.2993 19.1663 9.66337 19.1663 9.00033V3.16699C19.1663 2.50395 18.9029 1.86807 18.4341 1.39923C17.9653 0.930384 17.3294 0.666992 16.6663 0.666992ZM17.4997 9.00033C17.4997 9.22134 17.4119 9.4333 17.2556 9.58958C17.0993 9.74586 16.8874 9.83366 16.6663 9.83366H8.33301C8.11199 9.83366 7.90003 9.74586 7.74375 9.58958C7.58747 9.4333 7.49967 9.22134 7.49967 9.00033V3.16699C7.49967 2.94598 7.58747 2.73402 7.74375 2.57774C7.90003 2.42146 8.11199 2.33366 8.33301 2.33366H16.6663C16.8874 2.33366 17.0993 2.42146 17.2556 2.57774C17.4119 2.73402 17.4997 2.94598 17.4997 3.16699V9.00033ZM14.583 5.66699C14.2745 5.66804 13.9774 5.78389 13.7497 5.99199C13.5705 5.82912 13.3478 5.7218 13.1088 5.68308C12.8698 5.64435 12.6246 5.6759 12.4032 5.77387C12.1817 5.87185 11.9935 6.03203 11.8614 6.23497C11.7293 6.4379 11.6589 6.67484 11.6589 6.91699C11.6589 7.15915 11.7293 7.39609 11.8614 7.59902C11.9935 7.80195 12.1817 7.96214 12.4032 8.06011C12.6246 8.15809 12.8698 8.18963 13.1088 8.15091C13.3478 8.11219 13.5705 8.00487 13.7497 7.84199C13.9002 7.97877 14.0817 8.07676 14.2787 8.12747C14.4756 8.17819 14.6819 8.18009 14.8798 8.13302C15.0776 8.08594 15.261 7.99132 15.4139 7.85734C15.5669 7.72337 15.6849 7.55409 15.7577 7.3642C15.8304 7.1743 15.8557 6.96952 15.8315 6.76763C15.8072 6.56573 15.734 6.3728 15.6182 6.20559C15.5025 6.03838 15.3477 5.90193 15.1673 5.80807C14.9869 5.71421 14.7864 5.66579 14.583 5.66699ZM13.333 13.167C13.112 13.167 12.9 13.2548 12.7438 13.4111C12.5875 13.5673 12.4997 13.7793 12.4997 14.0003V14.8337C12.4997 15.0547 12.4119 15.2666 12.2556 15.4229C12.0993 15.5792 11.8874 15.667 11.6663 15.667H3.33301C3.11199 15.667 2.90003 15.5792 2.74375 15.4229C2.58747 15.2666 2.49967 15.0547 2.49967 14.8337V11.5003H3.33301C3.55402 11.5003 3.76598 11.4125 3.92226 11.2562C4.07854 11.1 4.16634 10.888 4.16634 10.667C4.16634 10.446 4.07854 10.234 3.92226 10.0777C3.76598 9.92146 3.55402 9.83366 3.33301 9.83366H2.49967V9.00033C2.49967 8.77931 2.58747 8.56735 2.74375 8.41107C2.90003 8.25479 3.11199 8.16699 3.33301 8.16699C3.55402 8.16699 3.76598 8.07919 3.92226 7.92291C4.07854 7.76663 4.16634 7.55467 4.16634 7.33366C4.16634 7.11265 4.07854 6.90068 3.92226 6.7444C3.76598 6.58812 3.55402 6.50033 3.33301 6.50033C2.66997 6.50033 2.03408 6.76372 1.56524 7.23256C1.0964 7.7014 0.833008 8.33728 0.833008 9.00033V14.8337C0.833008 15.4967 1.0964 16.1326 1.56524 16.6014C2.03408 17.0703 2.66997 17.3337 3.33301 17.3337H11.6663C12.3294 17.3337 12.9653 17.0703 13.4341 16.6014C13.9029 16.1326 14.1663 15.4967 14.1663 14.8337V14.0003C14.1663 13.7793 14.0785 13.5673 13.9223 13.4111C13.766 13.2548 13.554 13.167 13.333 13.167ZM4.99967 14.0003H5.83301C6.05402 14.0003 6.26598 13.9125 6.42226 13.7562C6.57854 13.6 6.66634 13.388 6.66634 13.167C6.66634 12.946 6.57854 12.734 6.42226 12.5777C6.26598 12.4215 6.05402 12.3337 5.83301 12.3337H4.99967C4.77866 12.3337 4.5667 12.4215 4.41042 12.5777C4.25414 12.734 4.16634 12.946 4.16634 13.167C4.16634 13.388 4.25414 13.6 4.41042 13.7562C4.5667 13.9125 4.77866 14.0003 4.99967 14.0003Z" fill="#111111"/>
</svg>
