<svg width="16" height="17" viewBox="0 0 16 17" fill="none" xmlns="http://www.w3.org/2000/svg">
<path fill-rule="evenodd" clip-rule="evenodd" d="M2.16689 6.50033C2.16689 4.95323 2.78148 3.4695 3.87544 2.37554C4.9694 1.28157 6.45313 0.666992 8.00023 0.666992C9.54732 0.666992 11.0311 1.28157 12.125 2.37554C13.219 3.4695 13.8336 4.95323 13.8336 6.50033V9.63699L15.3519 12.6737C15.4218 12.8134 15.4548 12.9687 15.4478 13.1249C15.4407 13.281 15.3939 13.4327 15.3118 13.5656C15.2296 13.6985 15.1148 13.8083 14.9783 13.8843C14.8418 13.9604 14.6882 14.0003 14.5319 14.0003H11.2286C11.0432 14.7155 10.6256 15.3489 10.0413 15.8011C9.45697 16.2533 8.73906 16.4986 8.00023 16.4986C7.2614 16.4986 6.54348 16.2533 5.95918 15.8011C5.37487 15.3489 4.95726 14.7155 4.77189 14.0003H1.46856C1.31229 14.0003 1.15861 13.9604 1.02212 13.8843C0.88562 13.8083 0.770842 13.6985 0.688681 13.5656C0.60652 13.4327 0.559706 13.281 0.552684 13.1249C0.545662 12.9687 0.578665 12.8134 0.64856 12.6737L2.16689 9.63699V6.50033ZM6.55689 14.0003C6.70318 14.2537 6.91357 14.4641 7.16693 14.6103C7.42029 14.7566 7.70768 14.8336 8.00023 14.8336C8.29277 14.8336 8.58017 14.7566 8.83352 14.6103C9.08688 14.4641 9.29727 14.2537 9.44356 14.0003H6.55689ZM8.00023 2.33366C6.89516 2.33366 5.83535 2.77265 5.05395 3.55405C4.27255 4.33545 3.83356 5.39526 3.83356 6.50033V9.63699C3.83354 9.8956 3.77334 10.1507 3.65773 10.382L2.68273 12.3337H13.3186L12.3436 10.382C12.2277 10.1507 12.1672 9.89567 12.1669 9.63699V6.50033C12.1669 5.39526 11.7279 4.33545 10.9465 3.55405C10.1651 2.77265 9.1053 2.33366 8.00023 2.33366Z" fill="#111111"/>
</svg>
