<svg width="20" height="16" viewBox="0 0 20 16" fill="none" xmlns="http://www.w3.org/2000/svg">
<path d="M0 1.77644C0 1.08013 0.558594 0.517578 1.25 0.517578H16.25C16.9414 0.517578 17.5 1.08013 17.5 1.77644C17.5 2.47275 16.9414 3.03531 16.25 3.03531H1.25C0.558594 3.03531 0 2.47275 0 1.77644ZM2.5 8.07077C2.5 7.37446 3.05859 6.8119 3.75 6.8119H18.75C19.4414 6.8119 20 7.37446 20 8.07077C20 8.76708 19.4414 9.32964 18.75 9.32964H3.75C3.05859 9.32964 2.5 8.76708 2.5 8.07077ZM17.5 14.3651C17.5 15.0614 16.9414 15.624 16.25 15.624H1.25C0.558594 15.624 0 15.0614 0 14.3651C0 13.6688 0.558594 13.1062 1.25 13.1062H16.25C16.9414 13.1062 17.5 13.6688 17.5 14.3651Z" fill="#111111"/>
</svg>
