<svg width="20" height="20" viewBox="0 0 20 20" fill="none" xmlns="http://www.w3.org/2000/svg">
<g clip-path="url(#clip0_434_4259)">
<path d="M9.94488 9.61154C11.4449 9.61154 12.6115 8.38932 12.6115 6.88932C12.6115 5.38932 11.3893 4.22266 9.88932 4.22266C8.38932 4.22266 7.22266 5.44488 7.22266 6.88932C7.22266 8.38932 8.44488 9.61154 9.94488 9.61154ZM9.88932 5.33377C9.94488 5.33377 9.94488 5.33377 9.88932 5.33377C10.7782 5.33377 11.5004 6.05599 11.5004 6.94488C11.5004 7.83377 10.7782 8.50043 9.88932 8.50043C9.00043 8.50043 8.33377 7.77821 8.33377 6.94488C8.33377 6.05599 9.05599 5.33377 9.88932 5.33377Z" fill="#111111"/>
<path d="M18.1663 9.27784C17.1108 8.33339 15.7219 7.83339 14.2775 7.88895H13.833C13.7219 8.33339 13.5552 8.72228 13.333 9.05561C13.6663 9.00006 13.9441 9.00006 14.2775 9.00006C15.333 8.9445 16.3886 9.27783 17.2219 9.88895V13.8889H18.333V9.4445L18.1663 9.27784Z" fill="#111111"/>
<path d="M13.0004 4.33312C13.2782 3.66645 14.056 3.33312 14.7782 3.61089C15.4449 3.88867 15.7782 4.66645 15.5004 5.38867C15.2782 5.88867 14.7782 6.22201 14.2782 6.22201C14.1671 6.22201 14.0004 6.22201 13.8893 6.16645C13.9449 6.44423 13.9449 6.72201 13.9449 6.94423V7.27756C14.056 7.27756 14.1671 7.33312 14.2782 7.33312C15.6671 7.33312 16.7782 6.22201 16.7782 4.88867C16.7782 3.49978 15.6671 2.38867 14.3338 2.38867C13.4449 2.38867 12.6671 2.83312 12.2227 3.61089C12.5004 3.77756 12.7782 3.99978 13.0004 4.33312Z" fill="#111111"/>
<path d="M6.66699 9.11128C6.44477 8.77795 6.2781 8.38906 6.16699 7.94462H5.72255C4.2781 7.88906 2.88921 8.38906 1.83366 9.27795L1.66699 9.44462V13.8891H2.7781V9.88906C3.66699 9.27795 4.66699 8.94462 5.72255 9.00017C6.05588 9.00017 6.38921 9.05573 6.66699 9.11128Z" fill="#111111"/>
<path d="M5.72264 7.27743C5.83375 7.27743 5.94486 7.27743 6.05597 7.22188V6.88854C6.05597 6.61077 6.05597 6.33299 6.11153 6.11077C6.00041 6.16632 5.83375 6.16632 5.72264 6.16632C5.00041 6.16632 4.3893 5.55521 4.3893 4.83299C4.3893 4.11077 5.00041 3.49965 5.72264 3.49965C6.27819 3.49965 6.77819 3.83299 7.00041 4.33299C7.22264 4.05521 7.55597 3.77743 7.83375 3.55521C7.11153 2.38854 5.61153 1.99965 4.44486 2.72188C3.27819 3.4441 2.8893 4.9441 3.61153 6.11077C4.05597 6.83299 4.83375 7.27743 5.72264 7.27743Z" fill="#111111"/>
<path d="M14.5001 12.6113L14.389 12.4446C13.2779 11.2224 11.7223 10.5002 10.0557 10.5557C8.389 10.5002 6.77789 11.2224 5.66678 12.4446L5.55566 12.6113V16.8335C5.55566 17.3335 5.94455 17.7779 6.50011 17.7779H13.6112C14.1112 17.7779 14.5557 17.3335 14.5557 16.8335V12.6113H14.5001ZM13.389 16.6668H6.66678V13.0002C7.55566 12.1113 8.77789 11.6668 10.0557 11.6668C11.2779 11.6113 12.5001 12.1113 13.389 13.0002V16.6668Z" fill="#111111"/>
</g>
<defs>
<clipPath id="clip0_434_4259">
<rect width="20" height="20" fill="white"/>
</clipPath>
</defs>
</svg>
