<svg width="42" height="41" viewBox="0 0 42 41" fill="none" xmlns="http://www.w3.org/2000/svg">
<circle cx="20.7718" cy="20.345" r="20.345" fill="#E7EDFF"/>
<path d="M22.3326 20.254C24.7113 20.254 26.6462 18.3187 26.6462 15.94C26.6462 13.5613 24.7113 11.626 22.3326 11.626C19.9538 11.626 18.0186 13.5613 18.0186 15.94C18.0186 18.3187 19.9538 20.254 22.3326 20.254ZM21.8217 13.4042V13.2871C21.8217 13.0047 22.0502 12.7762 22.3326 12.7762C22.6146 12.7762 22.8435 13.0047 22.8435 13.2871V13.4049C23.4514 13.5354 23.9089 14.0769 23.9089 14.7234C23.9089 15.0054 23.68 15.2343 23.398 15.2343C23.1156 15.2343 22.8871 15.0054 22.8871 14.7234C22.8871 14.5432 22.7403 14.3964 22.5601 14.3964H22.102C21.9218 14.3964 21.775 14.5432 21.775 14.7234C21.775 14.8266 21.8244 14.9247 21.9075 14.986L22.3326 15.3007L23.3653 16.065C23.7045 16.316 23.9089 16.7176 23.9116 17.1399V17.1447C23.914 17.505 23.776 17.845 23.5226 18.1014C23.3346 18.2918 23.0996 18.4195 22.8435 18.4734V18.5929C22.8435 18.8753 22.6146 19.1038 22.3326 19.1038C22.0502 19.1038 21.8217 18.8753 21.8217 18.5929V18.4751C21.5724 18.4219 21.3431 18.2993 21.1578 18.1161C20.9014 17.863 20.759 17.5251 20.757 17.1648C20.7553 16.8828 20.9824 16.6525 21.2645 16.6508H21.2679C21.5485 16.6508 21.7771 16.8777 21.7788 17.1587C21.7794 17.335 21.9213 17.4836 22.1074 17.4836C22.3897 17.4819 22.2846 17.4825 22.5649 17.4809C22.7462 17.4794 22.8912 17.3323 22.8898 17.1515V17.1467C22.8891 17.0446 22.8397 16.9471 22.7573 16.8862L22.3326 16.5718L21.2995 15.8075C20.9576 15.5541 20.7532 15.1488 20.7532 14.7234C20.7532 14.0756 21.212 13.5337 21.8217 13.4042Z" fill="#3E68E4"/>
<path d="M15.3433 22.7088C15.2123 22.4818 14.9214 22.4028 14.693 22.5346L12.2898 23.9218C12.0622 24.0535 11.9842 24.3446 12.1155 24.5724L14.5717 28.8266C14.7032 29.0541 14.9941 29.1322 15.222 29.0008L17.6252 27.6132C17.8531 27.4818 17.9309 27.1908 17.7995 26.9629L15.3433 22.7088Z" fill="#3E68E4"/>
<path d="M29.1134 21.8597C28.8822 21.5385 28.4346 21.466 28.1138 21.6973C27.1403 22.3985 25.2711 23.7453 25.1226 23.8526C25.0542 23.9108 24.9823 23.9636 24.9074 24.0103C24.6134 24.1952 24.2725 24.294 23.9166 24.294H21.4694C21.1874 24.294 20.9585 24.0654 20.9585 23.7831C20.9585 23.5004 21.1877 23.2722 21.4694 23.2722H24.0865C24.4711 23.2722 24.779 22.952 24.763 22.5668C24.748 22.2013 24.436 21.918 24.0702 21.918H22.078C21.9432 21.7752 21.7953 21.6445 21.637 21.5276C21.0923 21.1261 20.4193 20.8887 19.6908 20.8887C18.3955 20.8887 17.1067 21.7047 16.5723 22.794L18.6622 26.4135H22.5825C23.3522 26.4135 24.1104 26.2166 24.7776 25.8328C25.0089 25.7 25.2565 25.5402 25.5249 25.3474C26.6495 24.5395 28.9489 22.8611 28.9506 22.8601C29.2721 22.6291 29.345 22.1809 29.1134 21.8597Z" fill="#3E68E4"/>
</svg>
