<svg width="41" height="41" viewBox="0 0 41 41" fill="none" xmlns="http://www.w3.org/2000/svg">
<circle cx="20.6243" cy="20.345" r="20.345" fill="#FFE0EB"/>
<path d="M26.4373 17.4383H14.8116V15.985H26.4373V17.4383ZM24.9841 13.0786H16.2648V14.5318H24.9841V13.0786ZM27.8905 20.3447V26.1575C27.8905 26.543 27.7374 26.9126 27.4649 27.1851C27.1924 27.4576 26.8227 27.6108 26.4373 27.6108H14.8116C14.4265 27.6096 14.0576 27.4561 13.7853 27.1838C13.513 26.9116 13.3595 26.5426 13.3584 26.1575V20.3447C13.3595 19.9596 13.513 19.5907 13.7853 19.3184C14.0576 19.0461 14.4265 18.8926 14.8116 18.8915H26.4373C26.8224 18.8926 27.1914 19.0461 27.4636 19.3184C27.7359 19.5907 27.8894 19.9596 27.8905 20.3447ZM22.0246 24.0082L23.7125 22.5652L21.4899 22.3792L20.6245 20.3447L19.7591 22.3792L17.5364 22.5652L19.2243 24.0082L18.7157 26.1575L20.6245 25.0153L22.5333 26.1575L22.0246 24.0082Z" fill="#FF82AC"/>
</svg>
