<svg width="42" height="41" viewBox="0 0 42 41" fill="none" xmlns="http://www.w3.org/2000/svg">
<circle cx="20.7473" cy="20.345" r="20.345" fill="#B0C920" fill-opacity="0.18"/>
<path d="M22.3082 20.254C24.6869 20.254 26.6218 18.3187 26.6218 15.94C26.6218 13.5613 24.6869 11.626 22.3082 11.626C19.9294 11.626 17.9941 13.5613 17.9941 15.94C17.9941 18.3187 19.9294 20.254 22.3082 20.254ZM21.7973 13.4042V13.2871C21.7973 13.0047 22.0258 12.7762 22.3082 12.7762C22.5902 12.7762 22.8191 13.0047 22.8191 13.2871V13.4049C23.427 13.5354 23.8844 14.0769 23.8844 14.7234C23.8844 15.0054 23.6556 15.2343 23.3735 15.2343C23.0912 15.2343 22.8627 15.0054 22.8627 14.7234C22.8627 14.5432 22.7159 14.3964 22.5357 14.3964H22.0776C21.8974 14.3964 21.7506 14.5432 21.7506 14.7234C21.7506 14.8266 21.8 14.9247 21.8831 14.986L22.3082 15.3007L23.3409 16.065C23.6801 16.316 23.8844 16.7176 23.8872 17.1399V17.1447C23.8896 17.505 23.7516 17.845 23.4982 18.1014C23.3102 18.2918 23.0752 18.4195 22.8191 18.4734V18.5929C22.8191 18.8753 22.5902 19.1038 22.3082 19.1038C22.0258 19.1038 21.7973 18.8753 21.7973 18.5929V18.4751C21.5479 18.4219 21.3187 18.2993 21.1334 18.1161C20.877 17.863 20.7346 17.5251 20.7325 17.1648C20.7308 16.8828 20.958 16.6525 21.24 16.6508H21.2434C21.5241 16.6508 21.7526 16.8777 21.7543 17.1587C21.755 17.335 21.8969 17.4836 22.083 17.4836C22.3653 17.4819 22.2602 17.4825 22.5404 17.4809C22.7218 17.4794 22.8668 17.3323 22.8654 17.1515V17.1467C22.8647 17.0446 22.8153 16.9471 22.7329 16.8862L22.3082 16.5718L21.2751 15.8075C20.9332 15.5541 20.7288 15.1488 20.7288 14.7234C20.7288 14.0756 21.1876 13.5337 21.7973 13.4042Z" fill="#B0C920"/>
<path d="M15.3189 22.7088C15.1879 22.4818 14.897 22.4028 14.6686 22.5346L12.2654 23.9218C12.0378 24.0535 11.9598 24.3446 12.0911 24.5724L14.5473 28.8266C14.6788 29.0541 14.9697 29.1322 15.1976 29.0008L17.6008 27.6132C17.8287 27.4818 17.9065 27.1908 17.7751 26.9629L15.3189 22.7088Z" fill="#B0C920"/>
<path d="M29.089 21.8597C28.8577 21.5385 28.4102 21.466 28.0894 21.6973C27.1159 22.3985 25.2467 23.7453 25.0982 23.8526C25.0298 23.9108 24.9579 23.9636 24.883 24.0103C24.589 24.1952 24.2481 24.294 23.8922 24.294H21.445C21.163 24.294 20.9341 24.0654 20.9341 23.7831C20.9341 23.5004 21.1633 23.2722 21.445 23.2722H24.0621C24.4467 23.2722 24.7546 22.952 24.7386 22.5668C24.7236 22.2013 24.4116 21.918 24.0458 21.918H22.0536C21.9187 21.7752 21.7709 21.6445 21.6125 21.5276C21.0679 21.1261 20.3949 20.8887 19.6664 20.8887C18.3711 20.8887 17.0823 21.7047 16.5479 22.794L18.6378 26.4135H22.558C23.3278 26.4135 24.086 26.2166 24.7532 25.8328C24.9845 25.7 25.2321 25.5402 25.5005 25.3474C26.6251 24.5395 28.9245 22.8611 28.9262 22.8601C29.2477 22.6291 29.3206 22.1809 29.089 21.8597Z" fill="#B0C920"/>
</svg>
