<svg width="42" height="42" viewBox="0 0 42 42" fill="none" xmlns="http://www.w3.org/2000/svg">
<circle cx="21.3315" cy="20.8608" r="20.3433" fill="#FFF5D9"/>
<g clip-path="url(#clip0_99_31032)">
<path d="M27.2209 12.1421C26.2235 12.1421 25.415 12.9506 25.415 13.948V19.3362H28.5159C28.798 19.3362 29.0268 19.1075 29.0268 18.8254V13.948C29.0268 12.9506 28.2183 12.1421 27.2209 12.1421V12.1421Z" fill="#FFBB38"/>
<path d="M18.7899 24.9815C18.7899 21.8955 21.3002 19.3539 24.4275 19.3624V14.168C24.4275 13.3909 24.7201 12.681 25.2005 12.1421H16.1903C14.7824 12.1421 13.6367 13.2878 13.6367 14.6957V29.0591C13.6367 29.5187 14.1989 29.7444 14.5167 29.4123L15.1703 28.7298L15.8606 29.4205C16.0599 29.6197 16.3834 29.6197 16.583 29.4205L17.2372 28.7666L17.8979 29.4218C18.0971 29.6194 18.4183 29.6194 18.6175 29.4218L19.2888 28.7564L19.9604 29.4218C20.1593 29.6194 20.4801 29.6194 20.6793 29.4222L20.8094 29.2934C19.5428 28.2344 18.7899 26.6685 18.7899 24.9815ZM17.7694 16.263H18.7776V15.2547C18.7776 14.9726 19.0063 14.7439 19.2884 14.7439C19.5706 14.7439 19.7993 14.9726 19.7993 15.2547V16.263H20.8075C21.0896 16.263 21.3184 16.4917 21.3184 16.7738C21.3184 17.0559 21.0896 17.2847 20.8075 17.2847H19.7993V18.2929C19.7993 18.575 19.5706 18.8037 19.2884 18.8037C19.0063 18.8037 18.7776 18.575 18.7776 18.2929V17.2847H17.7694C17.4872 17.2847 17.2585 17.0559 17.2585 16.7738C17.2585 16.4917 17.4872 16.263 17.7694 16.263ZM16.2233 19.8406H19.6631C19.9452 19.8406 20.1739 20.0694 20.1739 20.3515C20.1739 20.6336 19.9452 20.8623 19.6631 20.8623H16.2233C15.9412 20.8623 15.7124 20.6336 15.7124 20.3515C15.7124 20.0694 15.9412 19.8406 16.2233 19.8406ZM17.9278 24.9457H16.2199C15.9378 24.9457 15.709 24.717 15.709 24.4349C15.709 24.1528 15.9378 23.924 16.2199 23.924H17.9278C18.21 23.924 18.4387 24.1528 18.4387 24.4349C18.4387 24.717 18.21 24.9457 17.9278 24.9457ZM18.2684 22.9057H16.2216C15.9394 22.9057 15.7107 22.677 15.7107 22.3949C15.7107 22.1128 15.9394 21.884 16.2216 21.884H18.2684C18.5506 21.884 18.7793 22.1128 18.7793 22.3949C18.7793 22.677 18.5506 22.9057 18.2684 22.9057Z" fill="#FFBB38"/>
<path d="M24.4092 20.3838C21.874 20.3838 19.8115 22.4463 19.8115 24.9815C19.8115 27.5166 21.874 29.5791 24.4092 29.5791C26.9443 29.5791 29.0069 27.5166 29.0069 24.9815C29.0069 22.4463 26.9443 20.3838 24.4092 20.3838ZM24.9216 26.9489V26.9974C24.9216 27.2796 24.6929 27.5083 24.4108 27.5083C24.1287 27.5083 23.8999 27.2796 23.8999 26.9974V26.9888C23.6711 26.9343 23.4588 26.8441 23.2905 26.734C23.0543 26.5795 22.9882 26.2629 23.1426 26.0268C23.2971 25.7906 23.6137 25.7245 23.8498 25.879C24.0589 26.0158 24.4035 26.0677 24.5729 25.988C24.6827 25.9363 24.7676 25.8261 24.7795 25.7199C24.8048 25.4937 24.4504 25.3675 24.2388 25.2839C23.9186 25.1575 23.52 25.0001 23.2887 24.5824C22.9589 23.9871 23.2478 23.2022 23.8999 22.9338V22.9081C23.8999 22.626 24.1287 22.3972 24.4108 22.3972C24.6901 22.3972 24.9168 22.6215 24.9212 22.8998C25.1051 22.9573 25.2745 23.0492 25.4101 23.1743C25.6175 23.3656 25.6306 23.6888 25.4393 23.8962C25.248 24.1036 24.9248 24.1166 24.7174 23.9253C24.6334 23.8478 24.3744 23.8165 24.2618 23.8921C24.1862 23.943 24.1565 24.0405 24.1824 24.0873C24.2903 24.282 24.8553 24.3488 25.2829 24.682C26.1564 25.3627 25.8525 26.5918 24.9216 26.9489Z" fill="#FFBB38"/>
</g>
<defs>
<clipPath id="clip0_99_31032">
<rect width="17.4371" height="17.4371" fill="white" transform="translate(12.6133 12.1421)"/>
</clipPath>
</defs>
</svg>
